# xmcd
#
# Track frame offsets:
#	150
#	12036
#	22734
#	35081
#	46969
#	58667
#	70747
#	81342
#	94352
#	105667
#	117081
#	128113
#	139137
#	149693
#	161869
#	173616
#	184848
#
# Disc length: 2633 seconds
# Revision: 0
# Processed by: cddbd v1.5.2PL0 Copyright (c) Steve Scherf et al.
# Submitted via: dBpowerAMP V12.0
#
DISCID=eb0a4711
DTITLE=Jim Reeves - The Abbott Recordings Vol 1 [RCA] (L) (Germany)
DYEAR=1983
DGENRE=Country
TTITLE0=I'll Follow You
TTITLE1=Where Does a Broken Heart Go
TTITLE2=Drinking Tequila
TTITLE3=Mexican Joe
TTITLE4=Give Me One More Kiss
TTITLE5=Shall We Gather at the River (Mother Went A-Walkin')
TTITLE6=Hillbilly Waltz
TTITLE7=Butterfly Love
TTITLE8=It's Hard to Love Just One
TTITLE9=Penny Candy
TTITLE10=Gypsy Heart
TTITLE11=Red Eyed and Rowdy
TTITLE12=Beatin' on the Ding Dong
TTITLE13=Wilder Your Heart Beats (The Sweeter Your Love)
TTITLE14=Are You the One
TTITLE15=Rancho del Rio
TTITLE16=Bimbo
EXTD=
EXTT0=
EXTT1=
EXTT2=
EXTT3=
EXTT4=
EXTT5=
EXTT6=
EXTT7=
EXTT8=
EXTT9=
EXTT10=
EXTT11=
EXTT12=
EXTT13=
EXTT14=
EXTT15=
EXTT16=
PLAYORDER=
